<?xml version="1.0" encoding="iso-8859-1"?>
<!-- Generator: Adobe Illustrator 18.1.1, SVG Export Plug-In . SVG Version: 6.00 Build 0)  -->
<!DOCTYPE svg PUBLIC "-//W3C//DTD SVG 1.1//EN" "http://www.w3.org/Graphics/SVG/1.1/DTD/svg11.dtd">
<svg version="1.1" xmlns="http://www.w3.org/2000/svg" xmlns:xlink="http://www.w3.org/1999/xlink" x="0px" y="0px"
	 viewBox="0 0 136 24" style="enable-background:new 0 0 136 24;" xml:space="preserve">
<style type="text/css">
	.st0{fill:#FFFFFF;}
	.st1{fill:none;stroke:#CCCCCC;stroke-width:0.5;stroke-miterlimit:10;}
	.st2{fill:#333333;}
	.st3{opacity:0.5;}
	.st4{fill:#999999;}
	.st5{fill:#ADB1B3;}
	.st6{clip-path:url(#SVGID_2_);}
	.st7{opacity:0.61;}
	.st8{opacity:0.2;fill:#FFFFFF;}
	.st9{opacity:0.2;}
	.st10{display:none;}
	.st11{display:inline;opacity:0.5;fill:none;stroke:#999999;stroke-miterlimit:10;}
	.st12{display:inline;}
	.st13{display:inline;opacity:0.5;}
	.st14{display:inline;fill:#ADB1B3;}
	.st15{display:none;opacity:0.61;}
	.st16{clip-path:url(#SVGID_7_);}
	.st17{fill:none;}
	.st18{display:inline;fill:#F5F5F5;}
	.st19{clip-path:url(#SVGID_8_);}
	.st20{fill:#F6F8F8;}
	.st21{fill:none;stroke:#F2F2F2;stroke-width:4;stroke-miterlimit:10;}
	.st22{fill:none;stroke:#999999;stroke-miterlimit:10;}
	.st23{fill:#E6E6E6;}
	.st24{opacity:0.55;}
	.st25{display:inline;fill:#636566;}
	.st26{fill:#636566;}
	.st27{fill:#626566;}
	.st28{fill:#AEB2B3;}
</style>
<g id="background">
</g>
<g id="art">
</g>
<g id="modal" class="st10">
</g>
<g id="nav">
	<g>
		<g>
			<path class="st26" d="M6.5,8.4C5.6,8.4,5,8.6,4.5,9C4,9.4,3.7,9.8,3.5,10.3c0,0-0.1,0-0.3,0c-0.2,0-0.5-0.1-0.8-0.1
				C2,10.1,1.8,10,1.5,9.8C1.3,9.5,1.2,9.2,1.2,8.8c0-0.4,0.1-0.8,0.3-1.1c0.2-0.4,0.6-0.7,1-1c0.5-0.3,1-0.5,1.7-0.7
				C5,5.9,5.8,5.8,6.7,5.8c1.9,0,3.4,0.4,4.3,1.3c1,0.9,1.4,2.1,1.4,3.8V18c0,0.1-0.1,0.2-0.4,0.3c-0.3,0.1-0.6,0.1-0.9,0.1
				c-0.6,0-1-0.2-1.4-0.5c-0.4-0.3-0.6-0.8-0.7-1.5c-0.4,0.6-1,1.1-1.8,1.5c-0.7,0.4-1.6,0.5-2.5,0.5c-1.3,0-2.3-0.3-3-1
				c-0.7-0.6-1.1-1.5-1.1-2.5c0-1.4,0.6-2.5,1.9-3.1c1.3-0.7,3.3-1,5.9-1H9C9,9.3,8.1,8.4,6.5,8.4z M6,16.2c0.9,0,1.6-0.3,2.1-0.8
				s0.8-1.2,0.8-2v-0.7l-0.7,0c-1.4,0-2.5,0.2-3.2,0.5c-0.7,0.3-1.1,0.8-1.1,1.5c0,0.5,0.2,0.8,0.5,1.1C5,16.1,5.4,16.2,6,16.2z"/>
			<path class="st26" d="M14.3,18c-0.3-0.2-0.5-0.7-0.5-1.3V1.3c0-0.1,0.1-0.1,0.4-0.2c0.3-0.1,0.6-0.1,0.9-0.1c0.3,0,0.5,0,0.8,0.1
				c0.3,0.1,0.5,0.2,0.7,0.4C16.9,1.7,17,2,17.2,2.3c0.1,0.4,0.2,0.8,0.2,1.4v13c0,0.6-0.1,1.1-0.4,1.3c-0.3,0.2-0.7,0.4-1.1,0.4
				h-0.4C15,18.4,14.6,18.3,14.3,18z"/>
			<path class="st26" d="M19.4,8.8c-1,0-1.5-0.4-1.5-1.2V7.4c0-0.9,0.5-1.3,1.5-1.3H20V4.5c0-0.6,0.1-1,0.4-1.3
				c0.3-0.3,0.7-0.4,1.2-0.4h0.3c0.5,0,0.9,0.1,1.1,0.4c0.3,0.2,0.4,0.7,0.4,1.3v1.5h2.1c0.5,0,0.9,0.1,1.1,0.3
				C26.9,6.6,27,6.9,27,7.3v0.2c0,0.9-0.5,1.3-1.5,1.3h-2.1V14c0,0.6,0.1,1,0.3,1.4c0.2,0.3,0.6,0.4,1,0.4c0.4,0,0.7-0.1,0.9-0.2
				c0.2-0.2,0.5-0.4,0.6-0.6c0,0,0.1,0,0.2,0c0.1,0.1,0.2,0.1,0.3,0.2c0.1,0.1,0.2,0.3,0.3,0.4c0.1,0.2,0.1,0.4,0.1,0.6
				c0,0.6-0.3,1.1-0.9,1.6c-0.6,0.4-1.4,0.7-2.4,0.7c-1.4,0-2.3-0.4-3-1.1c-0.6-0.7-1-1.7-1-3.1V8.8H19.4z"/>
			<path class="st26" d="M33.3,18.6c-1,0-1.8-0.2-2.6-0.5c-0.8-0.3-1.5-0.7-2-1.3c-0.6-0.6-1-1.2-1.3-2c-0.3-0.8-0.5-1.7-0.5-2.6
				c0-0.9,0.2-1.8,0.5-2.6c0.3-0.8,0.8-1.5,1.3-2c0.6-0.6,1.3-1,2.1-1.3c0.8-0.3,1.7-0.5,2.7-0.5c1,0,1.8,0.2,2.6,0.5
				c0.8,0.3,1.5,0.8,2,1.3c0.6,0.6,1,1.2,1.3,2c0.3,0.8,0.5,1.7,0.5,2.6c0,0.9-0.2,1.8-0.5,2.6c-0.3,0.8-0.8,1.5-1.3,2
				c-0.6,0.6-1.2,1-2,1.3C35.2,18.4,34.3,18.6,33.3,18.6z M33.3,15.8c0.5,0,0.9-0.1,1.3-0.3c0.4-0.2,0.8-0.4,1.1-0.8
				c0.3-0.3,0.5-0.7,0.7-1.1c0.2-0.4,0.3-0.9,0.3-1.4c0-0.5-0.1-1-0.2-1.5c-0.2-0.5-0.4-0.8-0.7-1.2c-0.3-0.3-0.7-0.6-1.1-0.8
				c-0.4-0.2-0.9-0.3-1.4-0.3s-1,0.1-1.4,0.3c-0.4,0.2-0.8,0.4-1.1,0.8s-0.5,0.7-0.7,1.1c-0.2,0.4-0.3,0.9-0.3,1.5
				c0,0.5,0.1,1,0.3,1.5c0.2,0.5,0.4,0.8,0.7,1.1c0.3,0.3,0.7,0.6,1.1,0.8C32.4,15.7,32.8,15.8,33.3,15.8z"/>
			<path class="st26" d="M44.1,7.9c0.4-0.6,1-1.1,1.6-1.5s1.4-0.6,2.4-0.6c0.8,0,1.5,0.1,2.1,0.4c0.6,0.3,1,0.6,1.4,1.1
				c0.4,0.5,0.6,1,0.8,1.6s0.3,1.3,0.3,2v5.8c0,0.6-0.1,1.1-0.4,1.3c-0.3,0.2-0.7,0.4-1.1,0.4h-0.4c-0.5,0-0.9-0.1-1.2-0.4
				s-0.4-0.7-0.4-1.3v-5.3c0-0.8-0.2-1.5-0.6-1.9c-0.4-0.5-0.9-0.7-1.7-0.7c-0.6,0-1.2,0.1-1.6,0.4c-0.5,0.3-0.8,0.7-1.1,1.2v6.3
				c0,0.6-0.1,1.1-0.4,1.3c-0.3,0.2-0.7,0.4-1.1,0.4h-0.4c-0.5,0-0.9-0.1-1.2-0.4c-0.3-0.2-0.4-0.7-0.4-1.3V6.4
				c0-0.1,0.1-0.1,0.4-0.2c0.3-0.1,0.6-0.2,0.9-0.2c0.2,0,0.5,0,0.7,0.1s0.4,0.2,0.6,0.3c0.2,0.1,0.4,0.4,0.5,0.6
				C43.9,7.2,44,7.5,44.1,7.9z"/>
			<path class="st26" d="M59.5,18.5c-0.9,0-1.7-0.2-2.4-0.5s-1.4-0.8-1.9-1.3c-0.5-0.6-1-1.2-1.2-2s-0.5-1.6-0.5-2.4
				s0.2-1.7,0.5-2.5s0.7-1.4,1.2-2c0.5-0.5,1.2-1,1.9-1.3s1.5-0.5,2.4-0.5c1,0,1.8,0.2,2.5,0.5c0.7,0.3,1.2,0.7,1.6,1.1
				c0.3,0.3,0.5,0.6,0.7,0.9c0.1,0.3,0.2,0.5,0.2,0.7c0,0.1,0,0.2-0.1,0.3c-0.1,0.1-0.2,0.1-0.2,0.2C64.1,10,64,10,63.9,10
				c-0.1,0-0.1,0-0.2,0c-0.1-0.4-0.3-0.7-0.5-1s-0.5-0.6-0.9-0.9c-0.3-0.3-0.7-0.5-1.2-0.6c-0.5-0.2-1-0.2-1.6-0.2
				c-0.7,0-1.3,0.1-1.9,0.4C57,7.9,56.5,8.3,56,8.7c-0.4,0.5-0.8,1-1,1.6c-0.2,0.6-0.4,1.3-0.4,2c0,0.7,0.1,1.4,0.4,2
				c0.2,0.6,0.6,1.2,1,1.6c0.4,0.5,0.9,0.8,1.5,1.1c0.6,0.3,1.2,0.4,2,0.4c0.6,0,1.2-0.1,1.6-0.2c0.5-0.1,0.9-0.4,1.2-0.6
				c0.3-0.3,0.6-0.6,0.9-0.9s0.4-0.7,0.5-1c0,0,0.1,0,0.2,0c0.1,0,0.2,0,0.3,0.1c0.1,0.1,0.2,0.1,0.2,0.2c0.1,0.1,0.1,0.2,0.1,0.3
				c0,0.2-0.1,0.4-0.2,0.7c-0.1,0.3-0.4,0.6-0.7,1c-0.4,0.4-0.9,0.8-1.6,1C61.3,18.4,60.5,18.5,59.5,18.5z"/>
			<path class="st26" d="M66,18.2c-0.1-0.1-0.1-0.2-0.1-0.5V1.4c0,0,0,0,0.1-0.1c0.1,0,0.2-0.1,0.3-0.1c0.2,0,0.4,0.1,0.6,0.2
				C67,1.7,67,2,67,2.5v6.3c0.4-0.8,0.9-1.4,1.6-1.9c0.7-0.5,1.6-0.7,2.6-0.7c0.8,0,1.5,0.1,2.1,0.4c0.6,0.2,1.1,0.6,1.5,1.1
				c0.4,0.5,0.7,1,0.9,1.7c0.2,0.6,0.3,1.4,0.3,2.2v6.3c0,0.2,0,0.4-0.1,0.5c-0.1,0.1-0.2,0.1-0.4,0.1h-0.1c-0.1,0-0.3,0-0.4-0.1
				c-0.1-0.1-0.1-0.2-0.1-0.5v-6.2c0-1.3-0.3-2.4-0.9-3.1s-1.5-1.1-2.7-1.1c-0.6,0-1.1,0.1-1.6,0.3c-0.5,0.2-0.9,0.5-1.3,0.8
				c-0.4,0.4-0.7,0.8-0.9,1.3c-0.2,0.5-0.3,1.1-0.3,1.7v6.3c0,0.2,0,0.4-0.1,0.5c-0.1,0.1-0.2,0.1-0.4,0.1h-0.1
				C66.2,18.4,66.1,18.3,66,18.2z"/>
			<path class="st26" d="M81.4,18.5c-1.3,0-2.3-0.3-3-0.9c-0.7-0.6-1.1-1.4-1.1-2.4c0-1.3,0.7-2.3,2.1-2.9c1.4-0.6,3.5-0.9,6.5-1
				h0.2v-0.6c0-1.1-0.3-2-1-2.6s-1.5-0.9-2.7-0.9c-1,0-1.9,0.2-2.5,0.6c-0.7,0.4-1.2,1-1.5,1.6c-0.2,0-0.3-0.1-0.4-0.1
				c-0.1,0-0.2-0.1-0.2-0.2c-0.1-0.1-0.1-0.2-0.1-0.4c0-0.1,0.1-0.3,0.2-0.5c0.1-0.2,0.3-0.4,0.5-0.6c0.4-0.4,0.9-0.7,1.6-1
				s1.5-0.5,2.5-0.5c1.5,0,2.6,0.4,3.5,1.2s1.2,1.9,1.2,3.4v7.5c0,0,0,0-0.1,0.1s-0.2,0.1-0.3,0.1c-0.2,0-0.4-0.1-0.5-0.2
				c-0.2-0.2-0.2-0.5-0.2-1v-1.2c-0.4,0.8-1,1.4-1.8,1.9C83.5,18.3,82.5,18.5,81.4,18.5z M81.5,17.5c0.6,0,1.3-0.1,1.8-0.3
				c0.6-0.2,1-0.5,1.5-0.9c0.4-0.4,0.7-0.8,1-1.3s0.4-1,0.4-1.6v-1.2h-0.3c-1.3,0-2.4,0.1-3.3,0.2c-0.9,0.1-1.7,0.3-2.2,0.5
				c-0.6,0.2-1,0.5-1.3,0.9c-0.3,0.4-0.4,0.8-0.4,1.3c0,0.7,0.3,1.2,0.8,1.6C79.9,17.3,80.6,17.5,81.5,17.5z"/>
			<path class="st26" d="M89.5,18.2c-0.1-0.1-0.1-0.2-0.1-0.5V6.5c0,0,0,0,0.1-0.1c0.1,0,0.2,0,0.3,0c0.2,0,0.4,0.1,0.5,0.2
				c0.2,0.2,0.2,0.5,0.2,1v1.1c0.4-0.7,0.9-1.3,1.7-1.8c0.7-0.5,1.6-0.7,2.6-0.7c0.8,0,1.5,0.1,2.1,0.4c0.6,0.2,1.1,0.6,1.5,1.1
				c0.4,0.5,0.7,1,0.9,1.7c0.2,0.6,0.3,1.4,0.3,2.2v6.3c0,0.2,0,0.4-0.1,0.5c-0.1,0.1-0.2,0.1-0.4,0.1h-0.1c-0.1,0-0.3,0-0.4-0.1
				c-0.1-0.1-0.1-0.2-0.1-0.5v-6.2c0-1.3-0.3-2.3-0.9-3.1c-0.6-0.8-1.5-1.1-2.7-1.1c-1,0-1.9,0.2-2.6,0.8c-0.7,0.5-1.2,1.2-1.6,2
				v7.7c0,0.2,0,0.4-0.1,0.5c-0.1,0.1-0.2,0.1-0.4,0.1h-0.1C89.8,18.4,89.6,18.3,89.5,18.2z"/>
			<path class="st26" d="M102.4,14.5c0.2,0.6,0.6,1.1,1,1.6c0.4,0.4,0.9,0.8,1.5,1c0.6,0.2,1.2,0.4,1.9,0.4c0.6,0,1.2-0.1,1.6-0.2
				c0.5-0.1,0.9-0.3,1.2-0.5c0.3-0.2,0.6-0.5,0.9-0.8c0.2-0.3,0.4-0.6,0.6-0.9c0,0,0.1,0,0.1,0c0.1,0,0.2,0.1,0.2,0.1
				c0.1,0.1,0.2,0.1,0.2,0.2s0.1,0.2,0.1,0.4c0,0.1-0.1,0.3-0.2,0.5c-0.1,0.2-0.3,0.5-0.6,0.7c-0.4,0.4-0.9,0.7-1.6,1
				c-0.7,0.3-1.6,0.5-2.6,0.5c-0.9,0-1.7-0.2-2.5-0.5s-1.4-0.7-1.9-1.3s-0.9-1.2-1.2-1.9s-0.4-1.6-0.4-2.5c0-0.9,0.2-1.7,0.5-2.5
				s0.7-1.4,1.2-2c0.5-0.6,1.1-1,1.9-1.3c0.7-0.3,1.5-0.5,2.4-0.5c0.8,0,1.6,0.1,2.2,0.4s1.2,0.7,1.7,1.2c0.5,0.5,0.8,1.1,1.1,1.8
				c0.3,0.7,0.4,1.5,0.4,2.4v0.1c0,0.2,0,0.3-0.1,0.3c-0.1,0.1-0.2,0.1-0.4,0.1H102C102,13.2,102.2,13.9,102.4,14.5z M110.9,11.5
				c0-0.6-0.1-1.2-0.4-1.7c-0.2-0.5-0.5-1-0.9-1.3c-0.4-0.4-0.8-0.7-1.3-0.9s-1.1-0.3-1.7-0.3c-0.6,0-1.2,0.1-1.7,0.3
				c-0.5,0.2-1,0.5-1.4,0.9c-0.4,0.4-0.7,0.8-1,1.4c-0.3,0.5-0.4,1.1-0.5,1.7H110.9z"/>
			<path class="st26" d="M115.7,23.1c-0.2,0-0.3,0-0.4-0.1c-0.1-0.1-0.2-0.2-0.2-0.2l2.1-5.1c-0.2,0-0.4,0-0.5-0.1
				c-0.1-0.1-0.2-0.2-0.3-0.4l-4.5-10.4c0-0.1,0.1-0.1,0.2-0.2c0.1-0.1,0.2-0.1,0.4-0.1c0.1,0,0.3,0,0.5,0.1
				c0.2,0.1,0.3,0.3,0.5,0.6l4.1,9.8l3.7-9.7c0.1-0.4,0.3-0.6,0.5-0.7c0.2-0.1,0.3-0.2,0.5-0.2c0.1,0,0.3,0.1,0.4,0.1
				s0.2,0.1,0.2,0.2l-6.1,15.6c-0.1,0.3-0.2,0.6-0.4,0.6C116,23,115.9,23.1,115.7,23.1z"/>
		</g>
		<g>
			<path class="st26" d="M135.1,7.1c-0.1-0.3-0.2-0.4-0.2-0.4h-11.4l-1.3,3.4h10.4c0.6,0,1-0.1,1.4-0.2c0.4-0.1,0.6-0.3,0.8-0.5
				c0.2-0.2,0.3-0.4,0.4-0.7c0.1-0.3,0.1-0.5,0.1-0.8C135.3,7.6,135.2,7.3,135.1,7.1z"/>
		</g>
		<g>
			<path class="st26" d="M133.5,11.2c-0.1-0.3-0.2-0.4-0.2-0.4h-11.4l-1.3,3.4h10.4c0.6,0,1-0.1,1.4-0.2c0.4-0.1,0.6-0.3,0.8-0.5
				c0.2-0.2,0.3-0.4,0.4-0.7c0.1-0.3,0.1-0.5,0.1-0.8C133.6,11.7,133.6,11.4,133.5,11.2z"/>
		</g>
		<g>
			<path class="st26" d="M131.8,15.3c-0.1-0.3-0.2-0.4-0.2-0.4h-11.3l-1.3,3.4h10.3c0.6,0,1-0.1,1.4-0.2c0.4-0.1,0.6-0.3,0.8-0.5
				c0.2-0.2,0.3-0.4,0.4-0.7c0.1-0.3,0.1-0.5,0.1-0.8C131.9,15.9,131.9,15.6,131.8,15.3z"/>
		</g>
	</g>
</g>
<g id="guides">
</g>
</svg>
